<mxfile host="65bd71144e">
    <diagram id="KAE_VDiI3zcYsobhMcIx" name="第 1 页">
        <mxGraphModel dx="1635" dy="692" grid="1" gridSize="10" guides="1" tooltips="1" connect="1" arrows="1" fold="1" page="1" pageScale="1" pageWidth="827" pageHeight="1169" math="0" shadow="0">
            <root>
                <mxCell id="0"/>
                <mxCell id="1" parent="0"/>
                <mxCell id="2" value="" style="group;fontStyle=1;fontFamily=Times New Roman;" vertex="1" connectable="0" parent="1">
                    <mxGeometry x="-90" y="140" width="740" height="530" as="geometry"/>
                </mxCell>
                <mxCell id="3" value="" style="rounded=0;whiteSpace=wrap;html=1;fillColor=default;fontStyle=1;fontSize=14;" vertex="1" parent="2">
                    <mxGeometry x="120" y="50" width="620" height="120" as="geometry"/>
                </mxCell>
                <mxCell id="4" value="" style="rounded=0;whiteSpace=wrap;html=1;fillColor=default;fontStyle=1;fontSize=14;" vertex="1" parent="2">
                    <mxGeometry x="120" width="620" height="50" as="geometry"/>
                </mxCell>
                <mxCell id="5" value="" style="group;fontStyle=1" vertex="1" connectable="0" parent="2">
                    <mxGeometry width="120" height="530" as="geometry"/>
                </mxCell>
                <mxCell id="6" style="edgeStyle=orthogonalEdgeStyle;rounded=0;orthogonalLoop=1;jettySize=auto;html=1;exitX=0;exitY=0.5;exitDx=0;exitDy=0;entryX=0;entryY=0.5;entryDx=0;entryDy=0;strokeWidth=2;" edge="1" parent="5" source="8" target="11">
                    <mxGeometry relative="1" as="geometry">
                        <Array as="points">
                            <mxPoint x="-30" y="470"/>
                            <mxPoint x="-30" y="110"/>
                        </Array>
                    </mxGeometry>
                </mxCell>
                <mxCell id="7" value="&lt;b&gt;&lt;font style=&quot;font-size: 15px;&quot;&gt;Loop&lt;/font&gt;&lt;/b&gt;" style="edgeLabel;html=1;align=center;verticalAlign=middle;resizable=0;points=[];" vertex="1" connectable="0" parent="6">
                    <mxGeometry x="-0.0119" y="1" relative="1" as="geometry">
                        <mxPoint as="offset"/>
                    </mxGeometry>
                </mxCell>
                <mxCell id="8" value="&lt;font style=&quot;font-size: 16px;&quot;&gt;Stream4 Compute&lt;/font&gt;" style="rounded=0;whiteSpace=wrap;html=1;fillColor=default;fontStyle=1" vertex="1" parent="5">
                    <mxGeometry y="410" width="120" height="120" as="geometry"/>
                </mxCell>
                <mxCell id="9" value="&lt;font style=&quot;font-size: 16px;&quot;&gt;Stream 3 Compute&lt;/font&gt;" style="rounded=0;whiteSpace=wrap;html=1;fillColor=default;fontStyle=1" vertex="1" parent="5">
                    <mxGeometry y="290" width="120" height="120" as="geometry"/>
                </mxCell>
                <mxCell id="10" value="&lt;font style=&quot;font-size: 16px;&quot;&gt;Stream 2 &lt;br&gt;Compute&lt;/font&gt;" style="rounded=0;whiteSpace=wrap;html=1;fillColor=default;fontStyle=1" vertex="1" parent="5">
                    <mxGeometry y="170" width="120" height="120" as="geometry"/>
                </mxCell>
                <mxCell id="11" value="&lt;font style=&quot;font-size: 16px;&quot;&gt;Stream 1&lt;br&gt;Compute&lt;/font&gt;" style="rounded=0;whiteSpace=wrap;html=1;fillColor=default;fontStyle=1" vertex="1" parent="5">
                    <mxGeometry y="50" width="120" height="120" as="geometry"/>
                </mxCell>
                <mxCell id="12" value="&lt;font style=&quot;&quot;&gt;&lt;font style=&quot;font-size: 17px;&quot;&gt;Init&lt;/font&gt;&lt;br&gt;&lt;/font&gt;" style="rounded=0;whiteSpace=wrap;html=1;fillColor=default;fontStyle=1" vertex="1" parent="5">
                    <mxGeometry width="120" height="50" as="geometry"/>
                </mxCell>
                <mxCell id="13" value="" style="rounded=0;whiteSpace=wrap;html=1;fillColor=default;fontStyle=1;fontSize=14;" vertex="1" parent="2">
                    <mxGeometry x="120" y="170" width="620" height="120" as="geometry"/>
                </mxCell>
                <mxCell id="14" value="" style="rounded=0;whiteSpace=wrap;html=1;fillColor=default;fontStyle=1;fontSize=14;" vertex="1" parent="2">
                    <mxGeometry x="120" y="290" width="620" height="120" as="geometry"/>
                </mxCell>
                <mxCell id="15" value="" style="rounded=0;whiteSpace=wrap;html=1;fillColor=default;fontStyle=1;fontSize=14;" vertex="1" parent="2">
                    <mxGeometry x="120" y="410" width="620" height="120" as="geometry"/>
                </mxCell>
                <mxCell id="16" value="&lt;b&gt;Lindked List with memory address&lt;/b&gt;" style="text;html=1;strokeColor=none;fillColor=none;align=center;verticalAlign=middle;whiteSpace=wrap;rounded=0;" vertex="1" parent="2">
                    <mxGeometry x="440" y="120" width="230" height="30" as="geometry"/>
                </mxCell>
                <mxCell id="17" value="&lt;b&gt;Lindked List with memory address&lt;/b&gt;" style="text;html=1;strokeColor=none;fillColor=none;align=center;verticalAlign=middle;whiteSpace=wrap;rounded=0;" vertex="1" parent="2">
                    <mxGeometry x="440" y="240" width="230" height="30" as="geometry"/>
                </mxCell>
                <mxCell id="18" value="&lt;b&gt;Lindked List with memory address&lt;/b&gt;" style="text;html=1;strokeColor=none;fillColor=none;align=center;verticalAlign=middle;whiteSpace=wrap;rounded=0;" vertex="1" parent="2">
                    <mxGeometry x="440" y="360" width="230" height="30" as="geometry"/>
                </mxCell>
                <mxCell id="19" value="&lt;b&gt;Lindked List with memory address&lt;/b&gt;" style="text;html=1;strokeColor=none;fillColor=none;align=center;verticalAlign=middle;whiteSpace=wrap;rounded=0;" vertex="1" parent="2">
                    <mxGeometry x="440" y="480" width="230" height="30" as="geometry"/>
                </mxCell>
                <mxCell id="20" value="" style="group;fontStyle=1;fontSize=14;" vertex="1" connectable="0" parent="1">
                    <mxGeometry x="40" y="210" width="560" height="80" as="geometry"/>
                </mxCell>
                <mxCell id="21" value="Shared Pool" style="text;html=1;align=center;verticalAlign=middle;resizable=0;points=[];autosize=1;strokeColor=none;fillColor=none;fontStyle=1;fontSize=14;" vertex="1" parent="20">
                    <mxGeometry x="25" y="50" width="110" height="30" as="geometry"/>
                </mxCell>
                <mxCell id="22" value="" style="group;fontStyle=1;fontSize=14;" vertex="1" connectable="0" parent="20">
                    <mxGeometry width="80" height="30" as="geometry"/>
                </mxCell>
                <mxCell id="23" value="" style="rounded=0;whiteSpace=wrap;html=1;fillColor=#008a00;fontColor=#ffffff;strokeColor=#005700;fontStyle=1;fontSize=14;" vertex="1" parent="22">
                    <mxGeometry x="40" width="10" height="30" as="geometry"/>
                </mxCell>
                <mxCell id="24" style="edgeStyle=none;jumpSize=2;html=1;entryX=0;entryY=0.5;entryDx=0;entryDy=0;startSize=2;endSize=2;fontStyle=1;fontSize=14;" edge="1" parent="22" source="25" target="23">
                    <mxGeometry relative="1" as="geometry"/>
                </mxCell>
                <mxCell id="25" value="S1" style="text;html=1;strokeColor=none;fillColor=none;align=center;verticalAlign=middle;whiteSpace=wrap;rounded=0;fontStyle=1;fontSize=14;" vertex="1" parent="22">
                    <mxGeometry width="30" height="30" as="geometry"/>
                </mxCell>
                <mxCell id="26" value="" style="group;fontStyle=1;fontSize=14;" vertex="1" connectable="0" parent="20">
                    <mxGeometry x="240" width="80" height="30" as="geometry"/>
                </mxCell>
                <mxCell id="27" value="" style="rounded=0;whiteSpace=wrap;html=1;fillColor=#0050ef;fontColor=#ffffff;strokeColor=#001DBC;fontStyle=1;fontSize=14;" vertex="1" parent="26">
                    <mxGeometry x="70" width="10" height="30" as="geometry"/>
                </mxCell>
                <mxCell id="28" style="edgeStyle=none;jumpSize=2;html=1;entryX=0;entryY=0.5;entryDx=0;entryDy=0;startSize=2;endSize=2;fontStyle=1;fontSize=14;" edge="1" parent="26" source="29" target="27">
                    <mxGeometry relative="1" as="geometry"/>
                </mxCell>
                <mxCell id="29" value="S2" style="text;html=1;strokeColor=none;fillColor=none;align=center;verticalAlign=middle;whiteSpace=wrap;rounded=0;fontStyle=1;fontSize=14;" vertex="1" parent="26">
                    <mxGeometry width="30" height="30" as="geometry"/>
                </mxCell>
                <mxCell id="30" value="" style="group;fontStyle=1;fontSize=14;" vertex="1" connectable="0" parent="20">
                    <mxGeometry x="360" width="80" height="30" as="geometry"/>
                </mxCell>
                <mxCell id="31" value="" style="rounded=0;whiteSpace=wrap;html=1;fillColor=#fa6800;fontColor=#000000;strokeColor=#C73500;fontStyle=1;fontSize=14;" vertex="1" parent="30">
                    <mxGeometry x="70" width="10" height="30" as="geometry"/>
                </mxCell>
                <mxCell id="32" style="edgeStyle=none;jumpSize=2;html=1;entryX=0;entryY=0.5;entryDx=0;entryDy=0;startSize=2;endSize=2;fontStyle=1;fontSize=14;" edge="1" parent="30" source="33" target="31">
                    <mxGeometry relative="1" as="geometry"/>
                </mxCell>
                <mxCell id="33" value="S3" style="text;html=1;strokeColor=none;fillColor=none;align=center;verticalAlign=middle;whiteSpace=wrap;rounded=0;fontStyle=1;fontSize=14;" vertex="1" parent="30">
                    <mxGeometry width="30" height="30" as="geometry"/>
                </mxCell>
                <mxCell id="34" value="" style="group;fontStyle=1;fontSize=14;" vertex="1" connectable="0" parent="20">
                    <mxGeometry x="480" width="80" height="30" as="geometry"/>
                </mxCell>
                <mxCell id="35" value="" style="rounded=0;whiteSpace=wrap;html=1;fillColor=#a20025;fontColor=#ffffff;strokeColor=#6F0000;fontStyle=1;fontSize=14;" vertex="1" parent="34">
                    <mxGeometry x="70" width="10" height="30" as="geometry"/>
                </mxCell>
                <mxCell id="36" style="edgeStyle=none;jumpSize=2;html=1;entryX=0;entryY=0.5;entryDx=0;entryDy=0;startSize=2;endSize=2;fontStyle=1;fontSize=14;" edge="1" parent="34" source="37" target="35">
                    <mxGeometry relative="1" as="geometry"/>
                </mxCell>
                <mxCell id="37" value="S4" style="text;html=1;strokeColor=none;fillColor=none;align=center;verticalAlign=middle;whiteSpace=wrap;rounded=0;fontStyle=1;fontSize=14;" vertex="1" parent="34">
                    <mxGeometry width="30" height="30" as="geometry"/>
                </mxCell>
                <mxCell id="38" style="edgeStyle=none;jumpSize=2;html=1;entryX=0;entryY=0.5;entryDx=0;entryDy=0;strokeColor=default;endArrow=classicThin;endFill=1;startSize=2;endSize=2;fontStyle=1;fontSize=14;" edge="1" parent="20" source="23" target="44">
                    <mxGeometry relative="1" as="geometry"/>
                </mxCell>
                <mxCell id="39" value="" style="group;fillColor=default;fontStyle=1;fontSize=14;" vertex="1" connectable="0" parent="20">
                    <mxGeometry x="60" width="170" height="30" as="geometry"/>
                </mxCell>
                <mxCell id="40" value="" style="rounded=0;whiteSpace=wrap;html=1;fillColor=#60a917;container=0;fontColor=#ffffff;strokeColor=#2D7600;fontStyle=1;fontSize=14;" vertex="1" parent="39">
                    <mxGeometry x="10" width="10" height="30" as="geometry"/>
                </mxCell>
                <mxCell id="41" value="" style="rounded=0;whiteSpace=wrap;html=1;fillColor=#60a917;container=0;fontColor=#ffffff;strokeColor=#2D7600;fontStyle=1;fontSize=14;" vertex="1" parent="39">
                    <mxGeometry x="25" width="10" height="30" as="geometry"/>
                </mxCell>
                <mxCell id="42" style="edgeStyle=none;jumpSize=2;html=1;entryX=0;entryY=0.5;entryDx=0;entryDy=0;strokeColor=default;endArrow=classicThin;endFill=1;startSize=2;endSize=2;fontStyle=1;fontSize=14;" edge="1" parent="39" source="40" target="41">
                    <mxGeometry relative="1" as="geometry"/>
                </mxCell>
                <mxCell id="43" style="edgeStyle=none;jumpSize=2;html=1;entryX=0;entryY=0.5;entryDx=0;entryDy=0;strokeColor=default;endArrow=classicThin;endFill=1;startSize=2;endSize=2;fontStyle=1;fontSize=14;" edge="1" parent="39" source="44" target="40">
                    <mxGeometry relative="1" as="geometry"/>
                </mxCell>
                <mxCell id="44" value="" style="rounded=0;whiteSpace=wrap;html=1;fillColor=#60a917;container=0;fontColor=#ffffff;strokeColor=#2D7600;fontStyle=1;fontSize=14;" vertex="1" parent="39">
                    <mxGeometry width="6" height="30" as="geometry"/>
                </mxCell>
                <mxCell id="45" value="" style="rounded=0;whiteSpace=wrap;html=1;fillColor=#60a917;container=0;fontColor=#ffffff;strokeColor=#2D7600;fontStyle=1;fontSize=14;" vertex="1" parent="39">
                    <mxGeometry x="40" width="16" height="30" as="geometry"/>
                </mxCell>
                <mxCell id="46" style="edgeStyle=none;jumpSize=2;html=1;entryX=0;entryY=0.5;entryDx=0;entryDy=0;strokeColor=default;endArrow=classicThin;endFill=1;startSize=2;endSize=2;fontStyle=1;fontSize=14;" edge="1" parent="39" source="41" target="45">
                    <mxGeometry relative="1" as="geometry"/>
                </mxCell>
                <mxCell id="47" value="" style="rounded=0;whiteSpace=wrap;html=1;fillColor=#60a917;container=0;fontColor=#ffffff;strokeColor=#2D7600;fontStyle=1;fontSize=14;" vertex="1" parent="39">
                    <mxGeometry x="78" width="16" height="30" as="geometry"/>
                </mxCell>
                <mxCell id="48" style="edgeStyle=none;jumpSize=2;html=1;entryX=0;entryY=0.5;entryDx=0;entryDy=0;startSize=2;endSize=2;strokeColor=default;dashed=1;dashPattern=1 1;endArrow=none;endFill=0;fontStyle=1;fontSize=14;" edge="1" parent="39" source="45" target="47">
                    <mxGeometry relative="1" as="geometry"/>
                </mxCell>
                <mxCell id="49" value="..." style="edgeLabel;html=1;align=center;verticalAlign=middle;resizable=0;points=[];" vertex="1" connectable="0" parent="48">
                    <mxGeometry x="-0.1818" y="2" relative="1" as="geometry">
                        <mxPoint as="offset"/>
                    </mxGeometry>
                </mxCell>
                <mxCell id="50" value="" style="rounded=0;whiteSpace=wrap;html=1;fillColor=#60a917;container=0;fontColor=#ffffff;strokeColor=#2D7600;fontStyle=1;fontSize=14;" vertex="1" parent="39">
                    <mxGeometry x="100" width="20" height="30" as="geometry"/>
                </mxCell>
                <mxCell id="51" style="edgeStyle=none;jumpSize=2;html=1;entryX=0;entryY=0.5;entryDx=0;entryDy=0;strokeColor=default;endArrow=classicThin;endFill=1;startSize=2;endSize=2;fontStyle=1;fontSize=14;" edge="1" parent="39" source="47" target="50">
                    <mxGeometry relative="1" as="geometry"/>
                </mxCell>
                <mxCell id="52" value="" style="rounded=0;whiteSpace=wrap;html=1;fillColor=#60a917;container=0;fontColor=#ffffff;strokeColor=#2D7600;fontStyle=1;fontSize=14;" vertex="1" parent="39">
                    <mxGeometry x="125" width="40" height="30" as="geometry"/>
                </mxCell>
                <mxCell id="53" style="edgeStyle=none;jumpSize=2;html=1;entryX=0;entryY=0.5;entryDx=0;entryDy=0;strokeColor=default;endArrow=classicThin;endFill=1;startSize=2;endSize=2;fontStyle=1;fontSize=14;" edge="1" parent="39" source="50" target="52">
                    <mxGeometry relative="1" as="geometry"/>
                </mxCell>
                <mxCell id="54" value="" style="group;fontStyle=1;fontSize=14;" vertex="1" connectable="0" parent="20">
                    <mxGeometry x="140" y="50" width="170" height="30" as="geometry"/>
                </mxCell>
                <mxCell id="55" value="" style="rounded=0;whiteSpace=wrap;html=1;fillColor=#60a917;container=0;fontColor=#ffffff;strokeColor=#2D7600;fontStyle=1;fontSize=14;" vertex="1" parent="54">
                    <mxGeometry x="10" width="10" height="30" as="geometry"/>
                </mxCell>
                <mxCell id="56" value="" style="rounded=0;whiteSpace=wrap;html=1;fillColor=#60a917;container=0;fontColor=#ffffff;strokeColor=#2D7600;fontStyle=1;fontSize=14;" vertex="1" parent="54">
                    <mxGeometry x="25" width="10" height="30" as="geometry"/>
                </mxCell>
                <mxCell id="57" style="edgeStyle=none;jumpSize=2;html=1;entryX=0;entryY=0.5;entryDx=0;entryDy=0;strokeColor=default;endArrow=classicThin;endFill=1;startSize=2;endSize=2;fontStyle=1;fontSize=14;" edge="1" parent="54" source="55" target="56">
                    <mxGeometry relative="1" as="geometry"/>
                </mxCell>
                <mxCell id="58" style="edgeStyle=none;jumpSize=2;html=1;entryX=0;entryY=0.5;entryDx=0;entryDy=0;strokeColor=default;endArrow=classicThin;endFill=1;startSize=2;endSize=2;fontStyle=1;fontSize=14;" edge="1" parent="54" source="59" target="55">
                    <mxGeometry relative="1" as="geometry"/>
                </mxCell>
                <mxCell id="59" value="" style="rounded=0;whiteSpace=wrap;html=1;fillColor=#60a917;container=0;fontColor=#ffffff;strokeColor=#2D7600;fontStyle=1;fontSize=14;" vertex="1" parent="54">
                    <mxGeometry width="6" height="30" as="geometry"/>
                </mxCell>
                <mxCell id="60" value="" style="rounded=0;whiteSpace=wrap;html=1;fillColor=#60a917;container=0;fontColor=#ffffff;strokeColor=#2D7600;fontStyle=1;fontSize=14;" vertex="1" parent="54">
                    <mxGeometry x="40" width="16" height="30" as="geometry"/>
                </mxCell>
                <mxCell id="61" style="edgeStyle=none;jumpSize=2;html=1;entryX=0;entryY=0.5;entryDx=0;entryDy=0;strokeColor=default;endArrow=classicThin;endFill=1;startSize=2;endSize=2;fontStyle=1;fontSize=14;" edge="1" parent="54" source="56" target="60">
                    <mxGeometry relative="1" as="geometry"/>
                </mxCell>
                <mxCell id="62" value="" style="rounded=0;whiteSpace=wrap;html=1;fillColor=#60a917;container=0;fontColor=#ffffff;strokeColor=#2D7600;fontStyle=1;fontSize=14;" vertex="1" parent="54">
                    <mxGeometry x="78" width="16" height="30" as="geometry"/>
                </mxCell>
                <mxCell id="63" style="edgeStyle=none;jumpSize=2;html=1;entryX=0;entryY=0.5;entryDx=0;entryDy=0;startSize=2;endSize=2;strokeColor=default;dashed=1;dashPattern=1 1;endArrow=none;endFill=0;fontStyle=1;fontSize=14;" edge="1" parent="54" source="60" target="62">
                    <mxGeometry relative="1" as="geometry"/>
                </mxCell>
                <mxCell id="64" value="..." style="edgeLabel;html=1;align=center;verticalAlign=middle;resizable=0;points=[];" vertex="1" connectable="0" parent="63">
                    <mxGeometry x="0.0909" y="1" relative="1" as="geometry">
                        <mxPoint as="offset"/>
                    </mxGeometry>
                </mxCell>
                <mxCell id="65" value="" style="rounded=0;whiteSpace=wrap;html=1;fillColor=#60a917;container=0;fontColor=#ffffff;strokeColor=#2D7600;fontStyle=1;fontSize=14;" vertex="1" parent="54">
                    <mxGeometry x="100" width="20" height="30" as="geometry"/>
                </mxCell>
                <mxCell id="66" style="edgeStyle=none;jumpSize=2;html=1;entryX=0;entryY=0.5;entryDx=0;entryDy=0;strokeColor=default;endArrow=classicThin;endFill=1;startSize=2;endSize=2;fontStyle=1;fontSize=14;" edge="1" parent="54" source="62" target="65">
                    <mxGeometry relative="1" as="geometry"/>
                </mxCell>
                <mxCell id="67" value="" style="rounded=0;whiteSpace=wrap;html=1;fillColor=#60a917;container=0;fontColor=#ffffff;strokeColor=#2D7600;fontStyle=1;fontSize=14;" vertex="1" parent="54">
                    <mxGeometry x="126" width="40" height="30" as="geometry"/>
                </mxCell>
                <mxCell id="68" style="edgeStyle=none;jumpSize=2;html=1;entryX=0;entryY=0.5;entryDx=0;entryDy=0;strokeColor=default;endArrow=classicThin;endFill=1;startSize=2;endSize=2;fontStyle=1;fontSize=14;" edge="1" parent="54" source="65" target="67">
                    <mxGeometry relative="1" as="geometry"/>
                </mxCell>
                <mxCell id="69" style="edgeStyle=none;jumpSize=2;html=1;entryX=0;entryY=0.5;entryDx=0;entryDy=0;strokeColor=default;endArrow=classicThin;endFill=1;startSize=2;endSize=2;fontStyle=1;fontSize=14;" edge="1" parent="20" source="21" target="59">
                    <mxGeometry relative="1" as="geometry"/>
                </mxCell>
                <mxCell id="70" value="" style="group;fontStyle=1;fontSize=14;" vertex="1" connectable="0" parent="1">
                    <mxGeometry x="40" y="330" width="560" height="80" as="geometry"/>
                </mxCell>
                <mxCell id="71" value="S1" style="text;html=1;strokeColor=none;fillColor=none;align=center;verticalAlign=middle;whiteSpace=wrap;rounded=0;fontStyle=1;fontSize=14;" vertex="1" parent="70">
                    <mxGeometry width="30" height="30" as="geometry"/>
                </mxCell>
                <mxCell id="72" value="" style="rounded=0;whiteSpace=wrap;html=1;fillColor=#008a00;fontColor=#ffffff;strokeColor=#005700;fontStyle=1;fontSize=14;" vertex="1" parent="70">
                    <mxGeometry x="70" width="10" height="30" as="geometry"/>
                </mxCell>
                <mxCell id="73" style="edgeStyle=none;jumpSize=2;html=1;entryX=0;entryY=0.5;entryDx=0;entryDy=0;startSize=2;endSize=2;fontStyle=1;fontSize=14;" edge="1" parent="70" source="71" target="72">
                    <mxGeometry relative="1" as="geometry"/>
                </mxCell>
                <mxCell id="74" value="Shared Pool" style="text;html=1;align=center;verticalAlign=middle;resizable=0;points=[];autosize=1;strokeColor=none;fillColor=none;fontStyle=1;fontSize=14;" vertex="1" parent="70">
                    <mxGeometry x="25" y="50" width="110" height="30" as="geometry"/>
                </mxCell>
                <mxCell id="75" value="" style="group;fontStyle=1;fontSize=14;" vertex="1" connectable="0" parent="70">
                    <mxGeometry x="140" y="50" width="170" height="30" as="geometry"/>
                </mxCell>
                <mxCell id="76" value="" style="rounded=0;whiteSpace=wrap;html=1;fillColor=#1ba1e2;container=0;fontColor=#ffffff;strokeColor=#006EAF;fontStyle=1;fontSize=14;" vertex="1" parent="75">
                    <mxGeometry x="10" width="10" height="30" as="geometry"/>
                </mxCell>
                <mxCell id="77" value="" style="rounded=0;whiteSpace=wrap;html=1;fillColor=#1ba1e2;container=0;fontColor=#ffffff;strokeColor=#006EAF;fontStyle=1;fontSize=14;" vertex="1" parent="75">
                    <mxGeometry x="25" width="10" height="30" as="geometry"/>
                </mxCell>
                <mxCell id="78" style="edgeStyle=none;jumpSize=2;html=1;entryX=0;entryY=0.5;entryDx=0;entryDy=0;strokeColor=default;endArrow=classicThin;endFill=1;startSize=2;endSize=2;fontStyle=1;fontSize=14;" edge="1" parent="75" source="76" target="77">
                    <mxGeometry relative="1" as="geometry"/>
                </mxCell>
                <mxCell id="79" style="edgeStyle=none;jumpSize=2;html=1;entryX=0;entryY=0.5;entryDx=0;entryDy=0;strokeColor=default;endArrow=classicThin;endFill=1;startSize=2;endSize=2;fontStyle=1;fontSize=14;" edge="1" parent="75" source="80" target="76">
                    <mxGeometry relative="1" as="geometry"/>
                </mxCell>
                <mxCell id="80" value="" style="rounded=0;whiteSpace=wrap;html=1;fillColor=#1ba1e2;container=0;fontColor=#ffffff;strokeColor=#006EAF;fontStyle=1;fontSize=14;" vertex="1" parent="75">
                    <mxGeometry width="6" height="30" as="geometry"/>
                </mxCell>
                <mxCell id="81" value="" style="rounded=0;whiteSpace=wrap;html=1;fillColor=#1ba1e2;container=0;fontColor=#ffffff;strokeColor=#006EAF;fontStyle=1;fontSize=14;" vertex="1" parent="75">
                    <mxGeometry x="40" width="16" height="30" as="geometry"/>
                </mxCell>
                <mxCell id="82" style="edgeStyle=none;jumpSize=2;html=1;entryX=0;entryY=0.5;entryDx=0;entryDy=0;strokeColor=default;endArrow=classicThin;endFill=1;startSize=2;endSize=2;fontStyle=1;fontSize=14;" edge="1" parent="75" source="77" target="81">
                    <mxGeometry relative="1" as="geometry"/>
                </mxCell>
                <mxCell id="83" value="" style="rounded=0;whiteSpace=wrap;html=1;fillColor=#1ba1e2;container=0;fontColor=#ffffff;strokeColor=#006EAF;fontStyle=1;fontSize=14;" vertex="1" parent="75">
                    <mxGeometry x="78" width="16" height="30" as="geometry"/>
                </mxCell>
                <mxCell id="84" style="edgeStyle=none;jumpSize=2;html=1;entryX=0;entryY=0.5;entryDx=0;entryDy=0;startSize=2;endSize=2;strokeColor=default;dashed=1;dashPattern=1 1;endArrow=none;endFill=0;fontStyle=1;fontSize=14;" edge="1" parent="75" source="81" target="83">
                    <mxGeometry relative="1" as="geometry"/>
                </mxCell>
                <mxCell id="85" value="..." style="edgeLabel;html=1;align=center;verticalAlign=middle;resizable=0;points=[];" vertex="1" connectable="0" parent="84">
                    <mxGeometry x="-0.29" relative="1" as="geometry">
                        <mxPoint as="offset"/>
                    </mxGeometry>
                </mxCell>
                <mxCell id="86" value="" style="rounded=0;whiteSpace=wrap;html=1;fillColor=#1ba1e2;container=0;fontColor=#ffffff;strokeColor=#006EAF;fontStyle=1;fontSize=14;" vertex="1" parent="75">
                    <mxGeometry x="100" width="20" height="30" as="geometry"/>
                </mxCell>
                <mxCell id="87" style="edgeStyle=none;jumpSize=2;html=1;entryX=0;entryY=0.5;entryDx=0;entryDy=0;strokeColor=default;endArrow=classicThin;endFill=1;startSize=2;endSize=2;fontStyle=1;fontSize=14;" edge="1" parent="75" source="83" target="86">
                    <mxGeometry relative="1" as="geometry"/>
                </mxCell>
                <mxCell id="88" value="" style="rounded=0;whiteSpace=wrap;html=1;fillColor=#1ba1e2;container=0;fontColor=#ffffff;strokeColor=#006EAF;fontStyle=1;fontSize=14;" vertex="1" parent="75">
                    <mxGeometry x="126" width="40" height="30" as="geometry"/>
                </mxCell>
                <mxCell id="89" style="edgeStyle=none;jumpSize=2;html=1;entryX=0;entryY=0.5;entryDx=0;entryDy=0;strokeColor=default;endArrow=classicThin;endFill=1;startSize=2;endSize=2;fontStyle=1;fontSize=14;" edge="1" parent="75" source="86" target="88">
                    <mxGeometry relative="1" as="geometry"/>
                </mxCell>
                <mxCell id="90" style="edgeStyle=none;jumpSize=2;html=1;entryX=0;entryY=0.5;entryDx=0;entryDy=0;strokeColor=default;endArrow=classicThin;endFill=1;startSize=2;endSize=2;fontStyle=1;fontSize=14;" edge="1" parent="70" source="74" target="80">
                    <mxGeometry relative="1" as="geometry"/>
                </mxCell>
                <mxCell id="91" value="" style="group;fontStyle=1;fontSize=14;" vertex="1" connectable="0" parent="70">
                    <mxGeometry x="120" width="80" height="30" as="geometry"/>
                </mxCell>
                <mxCell id="92" value="" style="rounded=0;whiteSpace=wrap;html=1;fillColor=#0050ef;fontColor=#ffffff;strokeColor=#001DBC;fontStyle=1;fontSize=14;" vertex="1" parent="91">
                    <mxGeometry x="40" width="10" height="30" as="geometry"/>
                </mxCell>
                <mxCell id="93" style="edgeStyle=none;jumpSize=2;html=1;entryX=0;entryY=0.5;entryDx=0;entryDy=0;startSize=2;endSize=2;fontStyle=1;fontSize=14;" edge="1" parent="91" source="94" target="92">
                    <mxGeometry relative="1" as="geometry"/>
                </mxCell>
                <mxCell id="94" value="S2" style="text;html=1;strokeColor=none;fillColor=none;align=center;verticalAlign=middle;whiteSpace=wrap;rounded=0;fontStyle=1;fontSize=14;" vertex="1" parent="91">
                    <mxGeometry width="30" height="30" as="geometry"/>
                </mxCell>
                <mxCell id="95" value="" style="group;fontStyle=1;fontSize=14;" vertex="1" connectable="0" parent="70">
                    <mxGeometry x="360" width="80" height="30" as="geometry"/>
                </mxCell>
                <mxCell id="96" value="" style="rounded=0;whiteSpace=wrap;html=1;fillColor=#fa6800;fontColor=#000000;strokeColor=#C73500;fontStyle=1;fontSize=14;" vertex="1" parent="95">
                    <mxGeometry x="70" width="10" height="30" as="geometry"/>
                </mxCell>
                <mxCell id="97" style="edgeStyle=none;jumpSize=2;html=1;entryX=0;entryY=0.5;entryDx=0;entryDy=0;startSize=2;endSize=2;fontStyle=1;fontSize=14;" edge="1" parent="95" source="98" target="96">
                    <mxGeometry relative="1" as="geometry"/>
                </mxCell>
                <mxCell id="98" value="S3" style="text;html=1;strokeColor=none;fillColor=none;align=center;verticalAlign=middle;whiteSpace=wrap;rounded=0;fontStyle=1;fontSize=14;" vertex="1" parent="95">
                    <mxGeometry width="30" height="30" as="geometry"/>
                </mxCell>
                <mxCell id="99" value="" style="group;fontStyle=1;fontSize=14;" vertex="1" connectable="0" parent="70">
                    <mxGeometry x="480" width="80" height="30" as="geometry"/>
                </mxCell>
                <mxCell id="100" value="" style="rounded=0;whiteSpace=wrap;html=1;fillColor=#a20025;fontColor=#ffffff;strokeColor=#6F0000;fontStyle=1;fontSize=14;" vertex="1" parent="99">
                    <mxGeometry x="70" width="10" height="30" as="geometry"/>
                </mxCell>
                <mxCell id="101" style="edgeStyle=none;jumpSize=2;html=1;entryX=0;entryY=0.5;entryDx=0;entryDy=0;startSize=2;endSize=2;fontStyle=1;fontSize=14;" edge="1" parent="99" source="102" target="100">
                    <mxGeometry relative="1" as="geometry"/>
                </mxCell>
                <mxCell id="102" value="S4" style="text;html=1;strokeColor=none;fillColor=none;align=center;verticalAlign=middle;whiteSpace=wrap;rounded=0;fontStyle=1;fontSize=14;" vertex="1" parent="99">
                    <mxGeometry width="30" height="30" as="geometry"/>
                </mxCell>
                <mxCell id="103" value="" style="group;fontStyle=1;fontSize=14;" vertex="1" connectable="0" parent="70">
                    <mxGeometry x="180" width="170" height="30" as="geometry"/>
                </mxCell>
                <mxCell id="104" value="" style="rounded=0;whiteSpace=wrap;html=1;fillColor=#1ba1e2;container=0;fontColor=#ffffff;strokeColor=#006EAF;fontStyle=1;fontSize=14;" vertex="1" parent="103">
                    <mxGeometry x="10" width="10" height="30" as="geometry"/>
                </mxCell>
                <mxCell id="105" value="" style="rounded=0;whiteSpace=wrap;html=1;fillColor=#1ba1e2;container=0;fontColor=#ffffff;strokeColor=#006EAF;fontStyle=1;fontSize=14;" vertex="1" parent="103">
                    <mxGeometry x="25" width="10" height="30" as="geometry"/>
                </mxCell>
                <mxCell id="106" style="edgeStyle=none;jumpSize=2;html=1;entryX=0;entryY=0.5;entryDx=0;entryDy=0;strokeColor=default;endArrow=classicThin;endFill=1;startSize=2;endSize=2;fontStyle=1;fontSize=14;" edge="1" parent="103" source="104" target="105">
                    <mxGeometry relative="1" as="geometry"/>
                </mxCell>
                <mxCell id="107" style="edgeStyle=none;jumpSize=2;html=1;entryX=0;entryY=0.5;entryDx=0;entryDy=0;strokeColor=default;endArrow=classicThin;endFill=1;startSize=2;endSize=2;fontStyle=1;fontSize=14;" edge="1" parent="103" source="108" target="104">
                    <mxGeometry relative="1" as="geometry"/>
                </mxCell>
                <mxCell id="108" value="" style="rounded=0;whiteSpace=wrap;html=1;fillColor=#1ba1e2;container=0;fontColor=#ffffff;strokeColor=#006EAF;fontStyle=1;fontSize=14;" vertex="1" parent="103">
                    <mxGeometry width="6" height="30" as="geometry"/>
                </mxCell>
                <mxCell id="109" value="" style="rounded=0;whiteSpace=wrap;html=1;fillColor=#1ba1e2;container=0;fontColor=#ffffff;strokeColor=#006EAF;fontStyle=1;fontSize=14;" vertex="1" parent="103">
                    <mxGeometry x="40" width="16" height="30" as="geometry"/>
                </mxCell>
                <mxCell id="110" style="edgeStyle=none;jumpSize=2;html=1;entryX=0;entryY=0.5;entryDx=0;entryDy=0;strokeColor=default;endArrow=classicThin;endFill=1;startSize=2;endSize=2;fontStyle=1;fontSize=14;" edge="1" parent="103" source="105" target="109">
                    <mxGeometry relative="1" as="geometry"/>
                </mxCell>
                <mxCell id="111" value="" style="rounded=0;whiteSpace=wrap;html=1;fillColor=#1ba1e2;container=0;fontColor=#ffffff;strokeColor=#006EAF;fontStyle=1;fontSize=14;" vertex="1" parent="103">
                    <mxGeometry x="78" width="16" height="30" as="geometry"/>
                </mxCell>
                <mxCell id="112" style="edgeStyle=none;jumpSize=2;html=1;entryX=0;entryY=0.5;entryDx=0;entryDy=0;startSize=2;endSize=2;strokeColor=default;dashed=1;dashPattern=1 1;endArrow=none;endFill=0;fontStyle=1;fontSize=14;" edge="1" parent="103" source="109" target="111">
                    <mxGeometry relative="1" as="geometry"/>
                </mxCell>
                <mxCell id="113" value="..." style="edgeLabel;html=1;align=center;verticalAlign=middle;resizable=0;points=[];" vertex="1" connectable="0" parent="112">
                    <mxGeometry x="-0.0736" y="-1" relative="1" as="geometry">
                        <mxPoint as="offset"/>
                    </mxGeometry>
                </mxCell>
                <mxCell id="114" value="" style="rounded=0;whiteSpace=wrap;html=1;fillColor=#1ba1e2;container=0;fontColor=#ffffff;strokeColor=#006EAF;fontStyle=1;fontSize=14;" vertex="1" parent="103">
                    <mxGeometry x="100" width="20" height="30" as="geometry"/>
                </mxCell>
                <mxCell id="115" style="edgeStyle=none;jumpSize=2;html=1;entryX=0;entryY=0.5;entryDx=0;entryDy=0;strokeColor=default;endArrow=classicThin;endFill=1;startSize=2;endSize=2;fontStyle=1;fontSize=14;" edge="1" parent="103" source="111" target="114">
                    <mxGeometry relative="1" as="geometry"/>
                </mxCell>
                <mxCell id="116" value="" style="rounded=0;whiteSpace=wrap;html=1;fillColor=#1ba1e2;container=0;fontColor=#ffffff;strokeColor=#006EAF;fontStyle=1;fontSize=14;" vertex="1" parent="103">
                    <mxGeometry x="126" width="40" height="30" as="geometry"/>
                </mxCell>
                <mxCell id="117" style="edgeStyle=none;jumpSize=2;html=1;entryX=0;entryY=0.5;entryDx=0;entryDy=0;strokeColor=default;endArrow=classicThin;endFill=1;startSize=2;endSize=2;fontStyle=1;fontSize=14;" edge="1" parent="103" source="114" target="116">
                    <mxGeometry relative="1" as="geometry"/>
                </mxCell>
                <mxCell id="118" style="edgeStyle=none;jumpSize=2;html=1;entryX=0;entryY=0.5;entryDx=0;entryDy=0;strokeColor=default;endArrow=classicThin;endFill=1;startSize=2;endSize=2;fontStyle=1;fontSize=14;" edge="1" parent="70" source="92" target="108">
                    <mxGeometry relative="1" as="geometry"/>
                </mxCell>
                <mxCell id="119" value="" style="group;fontStyle=1;fontSize=14;" vertex="1" connectable="0" parent="1">
                    <mxGeometry x="40" y="450" width="560" height="80" as="geometry"/>
                </mxCell>
                <mxCell id="120" value="" style="group;fontStyle=1;fontSize=14;" vertex="1" connectable="0" parent="119">
                    <mxGeometry width="130" height="30" as="geometry"/>
                </mxCell>
                <mxCell id="121" style="edgeStyle=none;jumpSize=2;html=1;entryX=0;entryY=0.5;entryDx=0;entryDy=0;startSize=2;endSize=2;fontStyle=1;fontSize=14;" edge="1" parent="120" source="122" target="123">
                    <mxGeometry relative="1" as="geometry"/>
                </mxCell>
                <mxCell id="122" value="S1" style="text;html=1;strokeColor=none;fillColor=none;align=center;verticalAlign=middle;whiteSpace=wrap;rounded=0;fontStyle=1;fontSize=14;" vertex="1" parent="120">
                    <mxGeometry width="30" height="30" as="geometry"/>
                </mxCell>
                <mxCell id="123" value="" style="rounded=0;whiteSpace=wrap;html=1;fillColor=#008a00;fontColor=#ffffff;strokeColor=#005700;fontStyle=1;fontSize=14;" vertex="1" parent="120">
                    <mxGeometry x="70" width="10" height="30" as="geometry"/>
                </mxCell>
                <mxCell id="124" value="Shared Pool" style="text;html=1;align=center;verticalAlign=middle;resizable=0;points=[];autosize=1;strokeColor=none;fillColor=none;fontStyle=1;fontSize=14;" vertex="1" parent="119">
                    <mxGeometry x="25" y="50" width="110" height="30" as="geometry"/>
                </mxCell>
                <mxCell id="125" value="" style="group;fontStyle=1;fontSize=14;" vertex="1" connectable="0" parent="119">
                    <mxGeometry x="140" y="50" width="170" height="30" as="geometry"/>
                </mxCell>
                <mxCell id="126" value="" style="rounded=0;whiteSpace=wrap;html=1;fillColor=#e3c800;container=0;fontColor=#000000;strokeColor=#B09500;fontStyle=1;fontSize=14;" vertex="1" parent="125">
                    <mxGeometry x="10" width="10" height="30" as="geometry"/>
                </mxCell>
                <mxCell id="127" value="" style="rounded=0;whiteSpace=wrap;html=1;fillColor=#e3c800;container=0;fontColor=#000000;strokeColor=#B09500;fontStyle=1;fontSize=14;" vertex="1" parent="125">
                    <mxGeometry x="25" width="10" height="30" as="geometry"/>
                </mxCell>
                <mxCell id="128" style="edgeStyle=none;jumpSize=2;html=1;entryX=0;entryY=0.5;entryDx=0;entryDy=0;strokeColor=default;endArrow=classicThin;endFill=1;startSize=2;endSize=2;fontStyle=1;fontSize=14;" edge="1" parent="125" source="126" target="127">
                    <mxGeometry relative="1" as="geometry"/>
                </mxCell>
                <mxCell id="129" style="edgeStyle=none;jumpSize=2;html=1;entryX=0;entryY=0.5;entryDx=0;entryDy=0;strokeColor=default;endArrow=classicThin;endFill=1;startSize=2;endSize=2;fontStyle=1;fontSize=14;" edge="1" parent="125" source="130" target="126">
                    <mxGeometry relative="1" as="geometry"/>
                </mxCell>
                <mxCell id="130" value="" style="rounded=0;whiteSpace=wrap;html=1;fillColor=#e3c800;container=0;fontColor=#000000;strokeColor=#B09500;fontStyle=1;fontSize=14;" vertex="1" parent="125">
                    <mxGeometry width="6" height="30" as="geometry"/>
                </mxCell>
                <mxCell id="131" value="" style="rounded=0;whiteSpace=wrap;html=1;fillColor=#e3c800;container=0;fontColor=#000000;strokeColor=#B09500;fontStyle=1;fontSize=14;" vertex="1" parent="125">
                    <mxGeometry x="40" width="16" height="30" as="geometry"/>
                </mxCell>
                <mxCell id="132" style="edgeStyle=none;jumpSize=2;html=1;entryX=0;entryY=0.5;entryDx=0;entryDy=0;strokeColor=default;endArrow=classicThin;endFill=1;startSize=2;endSize=2;fontStyle=1;fontSize=14;" edge="1" parent="125" source="127" target="131">
                    <mxGeometry relative="1" as="geometry"/>
                </mxCell>
                <mxCell id="133" value="" style="rounded=0;whiteSpace=wrap;html=1;fillColor=#e3c800;container=0;fontColor=#000000;strokeColor=#B09500;fontStyle=1;fontSize=14;" vertex="1" parent="125">
                    <mxGeometry x="78" width="16" height="30" as="geometry"/>
                </mxCell>
                <mxCell id="134" style="edgeStyle=none;jumpSize=2;html=1;entryX=0;entryY=0.5;entryDx=0;entryDy=0;startSize=2;endSize=2;strokeColor=default;dashed=1;dashPattern=1 1;endArrow=none;endFill=0;fontStyle=1;fontSize=14;" edge="1" parent="125" source="131" target="133">
                    <mxGeometry relative="1" as="geometry"/>
                </mxCell>
                <mxCell id="135" value="..." style="edgeLabel;html=1;align=center;verticalAlign=middle;resizable=0;points=[];" vertex="1" connectable="0" parent="134">
                    <mxGeometry x="0.013" relative="1" as="geometry">
                        <mxPoint as="offset"/>
                    </mxGeometry>
                </mxCell>
                <mxCell id="136" value="" style="rounded=0;whiteSpace=wrap;html=1;fillColor=#e3c800;container=0;fontColor=#000000;strokeColor=#B09500;fontStyle=1;fontSize=14;" vertex="1" parent="125">
                    <mxGeometry x="100" width="20" height="30" as="geometry"/>
                </mxCell>
                <mxCell id="137" style="edgeStyle=none;jumpSize=2;html=1;entryX=0;entryY=0.5;entryDx=0;entryDy=0;strokeColor=default;endArrow=classicThin;endFill=1;startSize=2;endSize=2;fontStyle=1;fontSize=14;" edge="1" parent="125" source="133" target="136">
                    <mxGeometry relative="1" as="geometry"/>
                </mxCell>
                <mxCell id="138" value="" style="rounded=0;whiteSpace=wrap;html=1;fillColor=#e3c800;container=0;fontColor=#000000;strokeColor=#B09500;fontStyle=1;fontSize=14;" vertex="1" parent="125">
                    <mxGeometry x="126" width="40" height="30" as="geometry"/>
                </mxCell>
                <mxCell id="139" style="edgeStyle=none;jumpSize=2;html=1;entryX=0;entryY=0.5;entryDx=0;entryDy=0;strokeColor=default;endArrow=classicThin;endFill=1;startSize=2;endSize=2;fontStyle=1;fontSize=14;" edge="1" parent="125" source="136" target="138">
                    <mxGeometry relative="1" as="geometry"/>
                </mxCell>
                <mxCell id="140" style="edgeStyle=none;jumpSize=2;html=1;entryX=0;entryY=0.5;entryDx=0;entryDy=0;strokeColor=default;endArrow=classicThin;endFill=1;startSize=2;endSize=2;fontStyle=1;fontSize=14;" edge="1" parent="119" source="124" target="130">
                    <mxGeometry relative="1" as="geometry"/>
                </mxCell>
                <mxCell id="141" value="" style="group;fontStyle=1;fontSize=14;" vertex="1" connectable="0" parent="119">
                    <mxGeometry x="120" width="80" height="30" as="geometry"/>
                </mxCell>
                <mxCell id="142" value="" style="rounded=0;whiteSpace=wrap;html=1;fillColor=#0050ef;fontColor=#ffffff;strokeColor=#001DBC;fontStyle=1;fontSize=14;" vertex="1" parent="141">
                    <mxGeometry x="70" width="10" height="30" as="geometry"/>
                </mxCell>
                <mxCell id="143" style="edgeStyle=none;jumpSize=2;html=1;entryX=0;entryY=0.5;entryDx=0;entryDy=0;startSize=2;endSize=2;fontStyle=1;fontSize=14;" edge="1" parent="141" source="144" target="142">
                    <mxGeometry relative="1" as="geometry"/>
                </mxCell>
                <mxCell id="144" value="S2" style="text;html=1;strokeColor=none;fillColor=none;align=center;verticalAlign=middle;whiteSpace=wrap;rounded=0;fontStyle=1;fontSize=14;" vertex="1" parent="141">
                    <mxGeometry width="30" height="30" as="geometry"/>
                </mxCell>
                <mxCell id="145" value="" style="group;fontStyle=1;fontSize=14;" vertex="1" connectable="0" parent="119">
                    <mxGeometry x="240" width="80" height="30" as="geometry"/>
                </mxCell>
                <mxCell id="146" value="" style="rounded=0;whiteSpace=wrap;html=1;fillColor=#fa6800;fontColor=#000000;strokeColor=#C73500;fontStyle=1;fontSize=14;" vertex="1" parent="145">
                    <mxGeometry x="40" width="10" height="30" as="geometry"/>
                </mxCell>
                <mxCell id="147" style="edgeStyle=none;jumpSize=2;html=1;entryX=0;entryY=0.5;entryDx=0;entryDy=0;startSize=2;endSize=2;fontStyle=1;fontSize=14;" edge="1" parent="145" source="148" target="146">
                    <mxGeometry relative="1" as="geometry"/>
                </mxCell>
                <mxCell id="148" value="S3" style="text;html=1;strokeColor=none;fillColor=none;align=center;verticalAlign=middle;whiteSpace=wrap;rounded=0;fontStyle=1;fontSize=14;" vertex="1" parent="145">
                    <mxGeometry width="30" height="30" as="geometry"/>
                </mxCell>
                <mxCell id="149" value="" style="group;fontStyle=1;fontSize=14;" vertex="1" connectable="0" parent="119">
                    <mxGeometry x="480" width="80" height="30" as="geometry"/>
                </mxCell>
                <mxCell id="150" value="" style="rounded=0;whiteSpace=wrap;html=1;fillColor=#a20025;fontColor=#ffffff;strokeColor=#6F0000;fontStyle=1;fontSize=14;" vertex="1" parent="149">
                    <mxGeometry x="70" width="10" height="30" as="geometry"/>
                </mxCell>
                <mxCell id="151" style="edgeStyle=none;jumpSize=2;html=1;entryX=0;entryY=0.5;entryDx=0;entryDy=0;startSize=2;endSize=2;fontStyle=1;fontSize=14;" edge="1" parent="149" source="152" target="150">
                    <mxGeometry relative="1" as="geometry"/>
                </mxCell>
                <mxCell id="152" value="S4" style="text;html=1;strokeColor=none;fillColor=none;align=center;verticalAlign=middle;whiteSpace=wrap;rounded=0;fontStyle=1;fontSize=14;" vertex="1" parent="149">
                    <mxGeometry width="30" height="30" as="geometry"/>
                </mxCell>
                <mxCell id="153" style="edgeStyle=none;jumpSize=2;html=1;entryX=0;entryY=0.5;entryDx=0;entryDy=0;strokeColor=default;endArrow=classicThin;endFill=1;startSize=2;endSize=2;fontStyle=1;fontSize=14;" edge="1" parent="119" source="146" target="159">
                    <mxGeometry relative="1" as="geometry"/>
                </mxCell>
                <mxCell id="154" value="" style="group;fontStyle=1;fontSize=14;" vertex="1" connectable="0" parent="119">
                    <mxGeometry x="300" width="170" height="30" as="geometry"/>
                </mxCell>
                <mxCell id="155" value="" style="rounded=0;whiteSpace=wrap;html=1;fillColor=#e3c800;container=0;fontColor=#000000;strokeColor=#B09500;fontStyle=1;fontSize=14;" vertex="1" parent="154">
                    <mxGeometry x="10" width="10" height="30" as="geometry"/>
                </mxCell>
                <mxCell id="156" value="" style="rounded=0;whiteSpace=wrap;html=1;fillColor=#e3c800;container=0;fontColor=#000000;strokeColor=#B09500;fontStyle=1;fontSize=14;" vertex="1" parent="154">
                    <mxGeometry x="25" width="10" height="30" as="geometry"/>
                </mxCell>
                <mxCell id="157" style="edgeStyle=none;jumpSize=2;html=1;entryX=0;entryY=0.5;entryDx=0;entryDy=0;strokeColor=default;endArrow=classicThin;endFill=1;startSize=2;endSize=2;fontStyle=1;fontSize=14;" edge="1" parent="154" source="155" target="156">
                    <mxGeometry relative="1" as="geometry"/>
                </mxCell>
                <mxCell id="158" style="edgeStyle=none;jumpSize=2;html=1;entryX=0;entryY=0.5;entryDx=0;entryDy=0;strokeColor=default;endArrow=classicThin;endFill=1;startSize=2;endSize=2;fontStyle=1;fontSize=14;" edge="1" parent="154" source="159" target="155">
                    <mxGeometry relative="1" as="geometry"/>
                </mxCell>
                <mxCell id="159" value="" style="rounded=0;whiteSpace=wrap;html=1;fillColor=#e3c800;container=0;fontColor=#000000;strokeColor=#B09500;fontStyle=1;fontSize=14;" vertex="1" parent="154">
                    <mxGeometry width="6" height="30" as="geometry"/>
                </mxCell>
                <mxCell id="160" value="" style="rounded=0;whiteSpace=wrap;html=1;fillColor=#e3c800;container=0;fontColor=#000000;strokeColor=#B09500;fontStyle=1;fontSize=14;" vertex="1" parent="154">
                    <mxGeometry x="40" width="16" height="30" as="geometry"/>
                </mxCell>
                <mxCell id="161" style="edgeStyle=none;jumpSize=2;html=1;entryX=0;entryY=0.5;entryDx=0;entryDy=0;strokeColor=default;endArrow=classicThin;endFill=1;startSize=2;endSize=2;fontStyle=1;fontSize=14;" edge="1" parent="154" source="156" target="160">
                    <mxGeometry relative="1" as="geometry"/>
                </mxCell>
                <mxCell id="162" value="" style="rounded=0;whiteSpace=wrap;html=1;fillColor=#e3c800;container=0;fontColor=#000000;strokeColor=#B09500;fontStyle=1;fontSize=14;" vertex="1" parent="154">
                    <mxGeometry x="78" width="16" height="30" as="geometry"/>
                </mxCell>
                <mxCell id="163" style="edgeStyle=none;jumpSize=2;html=1;entryX=0;entryY=0.5;entryDx=0;entryDy=0;startSize=2;endSize=2;strokeColor=default;dashed=1;dashPattern=1 1;endArrow=none;endFill=0;fontStyle=1;fontSize=14;" edge="1" parent="154" source="160" target="162">
                    <mxGeometry relative="1" as="geometry"/>
                </mxCell>
                <mxCell id="164" value="..." style="edgeLabel;html=1;align=center;verticalAlign=middle;resizable=0;points=[];" vertex="1" connectable="0" parent="163">
                    <mxGeometry x="0.2294" y="1" relative="1" as="geometry">
                        <mxPoint as="offset"/>
                    </mxGeometry>
                </mxCell>
                <mxCell id="165" value="" style="rounded=0;whiteSpace=wrap;html=1;fillColor=#e3c800;container=0;fontColor=#000000;strokeColor=#B09500;fontStyle=1;fontSize=14;" vertex="1" parent="154">
                    <mxGeometry x="100" width="20" height="30" as="geometry"/>
                </mxCell>
                <mxCell id="166" style="edgeStyle=none;jumpSize=2;html=1;entryX=0;entryY=0.5;entryDx=0;entryDy=0;strokeColor=default;endArrow=classicThin;endFill=1;startSize=2;endSize=2;fontStyle=1;fontSize=14;" edge="1" parent="154" source="162" target="165">
                    <mxGeometry relative="1" as="geometry"/>
                </mxCell>
                <mxCell id="167" value="" style="rounded=0;whiteSpace=wrap;html=1;fillColor=#e3c800;container=0;fontColor=#000000;strokeColor=#B09500;fontStyle=1;fontSize=14;" vertex="1" parent="154">
                    <mxGeometry x="126" width="40" height="30" as="geometry"/>
                </mxCell>
                <mxCell id="168" style="edgeStyle=none;jumpSize=2;html=1;entryX=0;entryY=0.5;entryDx=0;entryDy=0;strokeColor=default;endArrow=classicThin;endFill=1;startSize=2;endSize=2;fontStyle=1;fontSize=14;" edge="1" parent="154" source="165" target="167">
                    <mxGeometry relative="1" as="geometry"/>
                </mxCell>
                <mxCell id="169" value="" style="group;fontStyle=1;fontSize=14;" vertex="1" connectable="0" parent="1">
                    <mxGeometry x="40" y="570" width="590" height="80" as="geometry"/>
                </mxCell>
                <mxCell id="170" value="" style="group;fontStyle=1;fontSize=14;" vertex="1" connectable="0" parent="169">
                    <mxGeometry x="140" y="50" width="170" height="30" as="geometry"/>
                </mxCell>
                <mxCell id="171" value="" style="rounded=0;whiteSpace=wrap;html=1;fillColor=#d80073;container=0;fontColor=#ffffff;strokeColor=#A50040;fontStyle=1;fontSize=14;" vertex="1" parent="170">
                    <mxGeometry x="10" width="10" height="30" as="geometry"/>
                </mxCell>
                <mxCell id="172" value="" style="rounded=0;whiteSpace=wrap;html=1;fillColor=#d80073;container=0;fontColor=#ffffff;strokeColor=#A50040;fontStyle=1;fontSize=14;" vertex="1" parent="170">
                    <mxGeometry x="25" width="10" height="30" as="geometry"/>
                </mxCell>
                <mxCell id="173" style="edgeStyle=none;jumpSize=2;html=1;entryX=0;entryY=0.5;entryDx=0;entryDy=0;strokeColor=default;endArrow=classicThin;endFill=1;startSize=2;endSize=2;fontStyle=1;fontSize=14;" edge="1" parent="170" source="171" target="172">
                    <mxGeometry relative="1" as="geometry"/>
                </mxCell>
                <mxCell id="174" style="edgeStyle=none;jumpSize=2;html=1;entryX=0;entryY=0.5;entryDx=0;entryDy=0;strokeColor=default;endArrow=classicThin;endFill=1;startSize=2;endSize=2;fontStyle=1;fontSize=14;" edge="1" parent="170" source="175" target="171">
                    <mxGeometry relative="1" as="geometry"/>
                </mxCell>
                <mxCell id="175" value="" style="rounded=0;whiteSpace=wrap;html=1;fillColor=#d80073;container=0;fontColor=#ffffff;strokeColor=#A50040;fontStyle=1;fontSize=14;" vertex="1" parent="170">
                    <mxGeometry width="6" height="30" as="geometry"/>
                </mxCell>
                <mxCell id="176" value="" style="rounded=0;whiteSpace=wrap;html=1;fillColor=#d80073;container=0;fontColor=#ffffff;strokeColor=#A50040;fontStyle=1;fontSize=14;" vertex="1" parent="170">
                    <mxGeometry x="40" width="16" height="30" as="geometry"/>
                </mxCell>
                <mxCell id="177" style="edgeStyle=none;jumpSize=2;html=1;entryX=0;entryY=0.5;entryDx=0;entryDy=0;strokeColor=default;endArrow=classicThin;endFill=1;startSize=2;endSize=2;fontStyle=1;fontSize=14;" edge="1" parent="170" source="172" target="176">
                    <mxGeometry relative="1" as="geometry"/>
                </mxCell>
                <mxCell id="178" value="" style="rounded=0;whiteSpace=wrap;html=1;fillColor=#d80073;container=0;fontColor=#ffffff;strokeColor=#A50040;fontStyle=1;fontSize=14;" vertex="1" parent="170">
                    <mxGeometry x="78" width="16" height="30" as="geometry"/>
                </mxCell>
                <mxCell id="179" style="edgeStyle=none;jumpSize=2;html=1;entryX=0;entryY=0.5;entryDx=0;entryDy=0;startSize=2;endSize=2;strokeColor=default;dashed=1;dashPattern=1 1;endArrow=none;endFill=0;fontStyle=1;fontSize=14;" edge="1" parent="170" source="176" target="178">
                    <mxGeometry relative="1" as="geometry"/>
                </mxCell>
                <mxCell id="180" value="..." style="edgeLabel;html=1;align=center;verticalAlign=middle;resizable=0;points=[];" vertex="1" connectable="0" parent="179">
                    <mxGeometry x="0.0563" y="2" relative="1" as="geometry">
                        <mxPoint as="offset"/>
                    </mxGeometry>
                </mxCell>
                <mxCell id="181" value="" style="rounded=0;whiteSpace=wrap;html=1;fillColor=#d80073;container=0;fontColor=#ffffff;strokeColor=#A50040;fontStyle=1;fontSize=14;" vertex="1" parent="170">
                    <mxGeometry x="100" width="20" height="30" as="geometry"/>
                </mxCell>
                <mxCell id="182" style="edgeStyle=none;jumpSize=2;html=1;entryX=0;entryY=0.5;entryDx=0;entryDy=0;strokeColor=default;endArrow=classicThin;endFill=1;startSize=2;endSize=2;fontStyle=1;fontSize=14;" edge="1" parent="170" source="178" target="181">
                    <mxGeometry relative="1" as="geometry"/>
                </mxCell>
                <mxCell id="183" value="" style="rounded=0;whiteSpace=wrap;html=1;fillColor=#d80073;container=0;fontColor=#ffffff;strokeColor=#A50040;fontStyle=1;fontSize=14;" vertex="1" parent="170">
                    <mxGeometry x="126" width="40" height="30" as="geometry"/>
                </mxCell>
                <mxCell id="184" style="edgeStyle=none;jumpSize=2;html=1;entryX=0;entryY=0.5;entryDx=0;entryDy=0;strokeColor=default;endArrow=classicThin;endFill=1;startSize=2;endSize=2;fontStyle=1;fontSize=14;" edge="1" parent="170" source="181" target="183">
                    <mxGeometry relative="1" as="geometry"/>
                </mxCell>
                <mxCell id="185" value="" style="group;fontStyle=1;fontSize=14;" vertex="1" connectable="0" parent="169">
                    <mxGeometry x="120" width="80" height="30" as="geometry"/>
                </mxCell>
                <mxCell id="186" value="" style="rounded=0;whiteSpace=wrap;html=1;fillColor=#0050ef;fontColor=#ffffff;strokeColor=#001DBC;fontStyle=1;fontSize=14;" vertex="1" parent="185">
                    <mxGeometry x="70" width="10" height="30" as="geometry"/>
                </mxCell>
                <mxCell id="187" style="edgeStyle=none;jumpSize=2;html=1;entryX=0;entryY=0.5;entryDx=0;entryDy=0;startSize=2;endSize=2;fontStyle=1;fontSize=14;" edge="1" parent="185" source="188" target="186">
                    <mxGeometry relative="1" as="geometry"/>
                </mxCell>
                <mxCell id="188" value="S2" style="text;html=1;strokeColor=none;fillColor=none;align=center;verticalAlign=middle;whiteSpace=wrap;rounded=0;fontStyle=1;fontSize=14;" vertex="1" parent="185">
                    <mxGeometry width="30" height="30" as="geometry"/>
                </mxCell>
                <mxCell id="189" value="" style="group;fontStyle=1;fontSize=14;" vertex="1" connectable="0" parent="169">
                    <mxGeometry x="240" width="80" height="30" as="geometry"/>
                </mxCell>
                <mxCell id="190" value="" style="rounded=0;whiteSpace=wrap;html=1;fillColor=#fa6800;fontColor=#000000;strokeColor=#C73500;fontStyle=1;fontSize=14;" vertex="1" parent="189">
                    <mxGeometry x="70" width="10" height="30" as="geometry"/>
                </mxCell>
                <mxCell id="191" style="edgeStyle=none;jumpSize=2;html=1;entryX=0;entryY=0.5;entryDx=0;entryDy=0;startSize=2;endSize=2;fontStyle=1;fontSize=14;" edge="1" parent="189" source="192" target="190">
                    <mxGeometry relative="1" as="geometry"/>
                </mxCell>
                <mxCell id="192" value="S3" style="text;html=1;strokeColor=none;fillColor=none;align=center;verticalAlign=middle;whiteSpace=wrap;rounded=0;fontStyle=1;fontSize=14;" vertex="1" parent="189">
                    <mxGeometry width="30" height="30" as="geometry"/>
                </mxCell>
                <mxCell id="193" value="" style="group;fontStyle=1;fontSize=14;" vertex="1" connectable="0" parent="169">
                    <mxGeometry x="360" width="80" height="30" as="geometry"/>
                </mxCell>
                <mxCell id="194" value="" style="rounded=0;whiteSpace=wrap;html=1;fillColor=#a20025;fontColor=#ffffff;strokeColor=#6F0000;fontStyle=1;fontSize=14;" vertex="1" parent="193">
                    <mxGeometry x="40" width="10" height="30" as="geometry"/>
                </mxCell>
                <mxCell id="195" style="edgeStyle=none;jumpSize=2;html=1;entryX=0;entryY=0.5;entryDx=0;entryDy=0;startSize=2;endSize=2;fontStyle=1;fontSize=14;" edge="1" parent="193" source="196" target="194">
                    <mxGeometry relative="1" as="geometry"/>
                </mxCell>
                <mxCell id="196" value="S4" style="text;html=1;strokeColor=none;fillColor=none;align=center;verticalAlign=middle;whiteSpace=wrap;rounded=0;fontStyle=1;fontSize=14;" vertex="1" parent="193">
                    <mxGeometry width="30" height="30" as="geometry"/>
                </mxCell>
                <mxCell id="197" value="S1" style="text;html=1;strokeColor=none;fillColor=none;align=center;verticalAlign=middle;whiteSpace=wrap;rounded=0;fontStyle=1;fontSize=14;" vertex="1" parent="169">
                    <mxGeometry width="30" height="30" as="geometry"/>
                </mxCell>
                <mxCell id="198" value="" style="rounded=0;whiteSpace=wrap;html=1;fillColor=#008a00;fontColor=#ffffff;strokeColor=#005700;fontStyle=1;fontSize=14;" vertex="1" parent="169">
                    <mxGeometry x="70" width="10" height="30" as="geometry"/>
                </mxCell>
                <mxCell id="199" style="edgeStyle=none;jumpSize=2;html=1;entryX=0;entryY=0.5;entryDx=0;entryDy=0;startSize=2;endSize=2;fontStyle=1;fontSize=14;" edge="1" parent="169" source="197" target="198">
                    <mxGeometry relative="1" as="geometry"/>
                </mxCell>
                <mxCell id="200" value="" style="group;fontStyle=1;fontSize=14;" vertex="1" connectable="0" parent="169">
                    <mxGeometry x="420" width="170" height="30" as="geometry"/>
                </mxCell>
                <mxCell id="201" value="" style="rounded=0;whiteSpace=wrap;html=1;fillColor=#d80073;container=0;fontColor=#ffffff;strokeColor=#A50040;fontStyle=1;fontSize=14;" vertex="1" parent="200">
                    <mxGeometry x="10" width="10" height="30" as="geometry"/>
                </mxCell>
                <mxCell id="202" value="" style="rounded=0;whiteSpace=wrap;html=1;fillColor=#d80073;container=0;fontColor=#ffffff;strokeColor=#A50040;fontStyle=1;fontSize=14;" vertex="1" parent="200">
                    <mxGeometry x="25" width="10" height="30" as="geometry"/>
                </mxCell>
                <mxCell id="203" style="edgeStyle=none;jumpSize=2;html=1;entryX=0;entryY=0.5;entryDx=0;entryDy=0;strokeColor=default;endArrow=classicThin;endFill=1;startSize=2;endSize=2;fontStyle=1;fontSize=14;" edge="1" parent="200" source="201" target="202">
                    <mxGeometry relative="1" as="geometry"/>
                </mxCell>
                <mxCell id="204" style="edgeStyle=none;jumpSize=2;html=1;entryX=0;entryY=0.5;entryDx=0;entryDy=0;strokeColor=default;endArrow=classicThin;endFill=1;startSize=2;endSize=2;fontStyle=1;fontSize=14;" edge="1" parent="200" source="205" target="201">
                    <mxGeometry relative="1" as="geometry"/>
                </mxCell>
                <mxCell id="205" value="" style="rounded=0;whiteSpace=wrap;html=1;fillColor=#d80073;container=0;fontColor=#ffffff;strokeColor=#A50040;fontStyle=1;fontSize=14;" vertex="1" parent="200">
                    <mxGeometry width="6" height="30" as="geometry"/>
                </mxCell>
                <mxCell id="206" value="" style="rounded=0;whiteSpace=wrap;html=1;fillColor=#d80073;container=0;fontColor=#ffffff;strokeColor=#A50040;fontStyle=1;fontSize=14;" vertex="1" parent="200">
                    <mxGeometry x="40" width="16" height="30" as="geometry"/>
                </mxCell>
                <mxCell id="207" style="edgeStyle=none;jumpSize=2;html=1;entryX=0;entryY=0.5;entryDx=0;entryDy=0;strokeColor=default;endArrow=classicThin;endFill=1;startSize=2;endSize=2;fontStyle=1;fontSize=14;" edge="1" parent="200" source="202" target="206">
                    <mxGeometry relative="1" as="geometry"/>
                </mxCell>
                <mxCell id="208" value="" style="rounded=0;whiteSpace=wrap;html=1;fillColor=#d80073;container=0;fontColor=#ffffff;strokeColor=#A50040;fontStyle=1;fontSize=14;" vertex="1" parent="200">
                    <mxGeometry x="78" width="16" height="30" as="geometry"/>
                </mxCell>
                <mxCell id="209" style="edgeStyle=none;jumpSize=2;html=1;entryX=0;entryY=0.5;entryDx=0;entryDy=0;startSize=2;endSize=2;strokeColor=default;dashed=1;dashPattern=1 1;endArrow=none;endFill=0;fontStyle=1;fontSize=14;" edge="1" parent="200" source="206" target="208">
                    <mxGeometry relative="1" as="geometry"/>
                </mxCell>
                <mxCell id="210" value="..." style="edgeLabel;html=1;align=center;verticalAlign=middle;resizable=0;points=[];" vertex="1" connectable="0" parent="209">
                    <mxGeometry x="-0.2468" y="-2" relative="1" as="geometry">
                        <mxPoint as="offset"/>
                    </mxGeometry>
                </mxCell>
                <mxCell id="211" value="" style="rounded=0;whiteSpace=wrap;html=1;fillColor=#d80073;container=0;fontColor=#ffffff;strokeColor=#A50040;fontStyle=1;fontSize=14;" vertex="1" parent="200">
                    <mxGeometry x="100" width="20" height="30" as="geometry"/>
                </mxCell>
                <mxCell id="212" style="edgeStyle=none;jumpSize=2;html=1;entryX=0;entryY=0.5;entryDx=0;entryDy=0;strokeColor=default;endArrow=classicThin;endFill=1;startSize=2;endSize=2;fontStyle=1;fontSize=14;" edge="1" parent="200" source="208" target="211">
                    <mxGeometry relative="1" as="geometry"/>
                </mxCell>
                <mxCell id="213" value="" style="rounded=0;whiteSpace=wrap;html=1;fillColor=#d80073;container=0;fontColor=#ffffff;strokeColor=#A50040;fontStyle=1;fontSize=14;" vertex="1" parent="200">
                    <mxGeometry x="126" width="40" height="30" as="geometry"/>
                </mxCell>
                <mxCell id="214" style="edgeStyle=none;jumpSize=2;html=1;entryX=0;entryY=0.5;entryDx=0;entryDy=0;strokeColor=default;endArrow=classicThin;endFill=1;startSize=2;endSize=2;fontStyle=1;fontSize=14;" edge="1" parent="200" source="211" target="213">
                    <mxGeometry relative="1" as="geometry"/>
                </mxCell>
                <mxCell id="215" style="edgeStyle=none;jumpSize=2;html=1;entryX=0;entryY=0.5;entryDx=0;entryDy=0;strokeColor=default;endArrow=classicThin;endFill=1;startSize=2;endSize=2;fontStyle=1;fontSize=14;" edge="1" parent="169" source="216" target="175">
                    <mxGeometry relative="1" as="geometry"/>
                </mxCell>
                <mxCell id="216" value="Shared Pool" style="text;html=1;align=center;verticalAlign=middle;resizable=0;points=[];autosize=1;strokeColor=none;fillColor=none;fontStyle=1;fontSize=14;" vertex="1" parent="169">
                    <mxGeometry x="25" y="50" width="110" height="30" as="geometry"/>
                </mxCell>
                <mxCell id="217" style="edgeStyle=none;jumpSize=2;html=1;entryX=0;entryY=0.5;entryDx=0;entryDy=0;strokeColor=default;endArrow=classicThin;endFill=1;startSize=2;endSize=2;fontStyle=1;fontSize=14;" edge="1" parent="169" source="194" target="205">
                    <mxGeometry relative="1" as="geometry"/>
                </mxCell>
                <mxCell id="218" value="" style="group;fontStyle=1;fontSize=14;" vertex="1" connectable="0" parent="1">
                    <mxGeometry x="40" y="150" width="610" height="30" as="geometry"/>
                </mxCell>
                <mxCell id="219" value="" style="group;fontStyle=1;fontSize=14;" vertex="1" connectable="0" parent="218">
                    <mxGeometry width="130" height="30" as="geometry"/>
                </mxCell>
                <mxCell id="220" value="S1" style="text;html=1;strokeColor=none;fillColor=none;align=center;verticalAlign=middle;whiteSpace=wrap;rounded=0;fontStyle=1;fontSize=14;" vertex="1" parent="219">
                    <mxGeometry width="30" height="30" as="geometry"/>
                </mxCell>
                <mxCell id="221" style="edgeStyle=none;html=1;fontStyle=1;fontSize=14;" edge="1" parent="219" source="220">
                    <mxGeometry relative="1" as="geometry">
                        <mxPoint x="90" y="15" as="targetPoint"/>
                    </mxGeometry>
                </mxCell>
                <mxCell id="222" value="" style="rounded=0;whiteSpace=wrap;html=1;fillColor=#008a00;fontColor=#ffffff;strokeColor=#005700;fontStyle=1;fontSize=14;" vertex="1" parent="219">
                    <mxGeometry x="90" width="10" height="30" as="geometry"/>
                </mxCell>
                <mxCell id="223" value="" style="group;fontStyle=1;fontSize=14;" vertex="1" connectable="0" parent="218">
                    <mxGeometry x="160" width="130" height="30" as="geometry"/>
                </mxCell>
                <mxCell id="224" value="S2" style="text;html=1;strokeColor=none;fillColor=none;align=center;verticalAlign=middle;whiteSpace=wrap;rounded=0;fontStyle=1;fontSize=14;" vertex="1" parent="223">
                    <mxGeometry width="30" height="30" as="geometry"/>
                </mxCell>
                <mxCell id="225" style="edgeStyle=none;html=1;fontStyle=1;fontSize=14;" edge="1" parent="223" source="224">
                    <mxGeometry relative="1" as="geometry">
                        <mxPoint x="90" y="15" as="targetPoint"/>
                    </mxGeometry>
                </mxCell>
                <mxCell id="226" value="" style="rounded=0;whiteSpace=wrap;html=1;fillColor=#0050ef;fontColor=#ffffff;strokeColor=#001DBC;fontStyle=1;fontSize=14;" vertex="1" parent="223">
                    <mxGeometry x="90" width="10" height="30" as="geometry"/>
                </mxCell>
                <mxCell id="227" value="" style="group;fontStyle=1;fontSize=14;" vertex="1" connectable="0" parent="218">
                    <mxGeometry x="320" width="130" height="30" as="geometry"/>
                </mxCell>
                <mxCell id="228" value="S3" style="text;html=1;strokeColor=none;fillColor=none;align=center;verticalAlign=middle;whiteSpace=wrap;rounded=0;fontStyle=1;fontSize=14;" vertex="1" parent="227">
                    <mxGeometry width="30" height="30" as="geometry"/>
                </mxCell>
                <mxCell id="229" style="edgeStyle=none;html=1;fontStyle=1;fontSize=14;" edge="1" parent="227" source="228">
                    <mxGeometry relative="1" as="geometry">
                        <mxPoint x="90" y="15" as="targetPoint"/>
                    </mxGeometry>
                </mxCell>
                <mxCell id="230" value="" style="rounded=0;whiteSpace=wrap;html=1;fillColor=#fa6800;fontColor=#000000;strokeColor=#C73500;fontStyle=1;fontSize=14;" vertex="1" parent="227">
                    <mxGeometry x="90" width="10" height="30" as="geometry"/>
                </mxCell>
                <mxCell id="231" value="" style="group;fontStyle=1;fontSize=14;" vertex="1" connectable="0" parent="218">
                    <mxGeometry x="480" width="130" height="30" as="geometry"/>
                </mxCell>
                <mxCell id="232" value="S4" style="text;html=1;strokeColor=none;fillColor=none;align=center;verticalAlign=middle;whiteSpace=wrap;rounded=0;fontStyle=1;fontSize=14;" vertex="1" parent="231">
                    <mxGeometry width="30" height="30" as="geometry"/>
                </mxCell>
                <mxCell id="233" style="edgeStyle=none;html=1;fontStyle=1;fontSize=14;" edge="1" parent="231" source="232">
                    <mxGeometry relative="1" as="geometry">
                        <mxPoint x="90" y="15" as="targetPoint"/>
                    </mxGeometry>
                </mxCell>
                <mxCell id="234" value="" style="rounded=0;whiteSpace=wrap;html=1;fillColor=#a20025;fontColor=#ffffff;strokeColor=#6F0000;fontStyle=1;fontSize=14;" vertex="1" parent="231">
                    <mxGeometry x="90" width="10" height="30" as="geometry"/>
                </mxCell>
                <mxCell id="235" value="" style="rounded=0;whiteSpace=wrap;html=1;" vertex="1" parent="1">
                    <mxGeometry x="650" y="140" width="80" height="530" as="geometry"/>
                </mxCell>
                <mxCell id="236" value="" style="rounded=0;whiteSpace=wrap;html=1;fillColor=#008a00;fontColor=#ffffff;strokeColor=#005700;fontStyle=1;fontSize=14;" vertex="1" parent="1">
                    <mxGeometry x="660" y="230" width="10" height="30" as="geometry"/>
                </mxCell>
                <mxCell id="237" value="" style="rounded=0;whiteSpace=wrap;html=1;fillColor=#0050ef;fontColor=#ffffff;strokeColor=#001DBC;fontStyle=1;fontSize=14;" vertex="1" parent="1">
                    <mxGeometry x="660" y="350" width="10" height="30" as="geometry"/>
                </mxCell>
                <mxCell id="238" value="" style="rounded=0;whiteSpace=wrap;html=1;fillColor=#fa6800;fontColor=#000000;strokeColor=#C73500;fontStyle=1;fontSize=14;" vertex="1" parent="1">
                    <mxGeometry x="660" y="470" width="10" height="30" as="geometry"/>
                </mxCell>
                <mxCell id="239" value="" style="rounded=0;whiteSpace=wrap;html=1;fillColor=#a20025;fontColor=#ffffff;strokeColor=#6F0000;fontStyle=1;fontSize=14;" vertex="1" parent="1">
                    <mxGeometry x="660" y="595" width="10" height="30" as="geometry"/>
                </mxCell>
                <mxCell id="240" value="&lt;b&gt;Strean 1&lt;br&gt;Local Memory&lt;/b&gt;" style="text;html=1;strokeColor=none;fillColor=none;align=center;verticalAlign=middle;whiteSpace=wrap;rounded=0;" vertex="1" parent="1">
                    <mxGeometry x="670" y="230" width="60" height="30" as="geometry"/>
                </mxCell>
                <mxCell id="241" value="&lt;b&gt;Strean 2&lt;br&gt;Local Memory&lt;/b&gt;" style="text;html=1;strokeColor=none;fillColor=none;align=center;verticalAlign=middle;whiteSpace=wrap;rounded=0;" vertex="1" parent="1">
                    <mxGeometry x="670" y="350" width="60" height="30" as="geometry"/>
                </mxCell>
                <mxCell id="242" value="&lt;b&gt;Strean 3&lt;br&gt;Local Memory&lt;/b&gt;" style="text;html=1;strokeColor=none;fillColor=none;align=center;verticalAlign=middle;whiteSpace=wrap;rounded=0;" vertex="1" parent="1">
                    <mxGeometry x="670" y="470" width="60" height="30" as="geometry"/>
                </mxCell>
                <mxCell id="243" value="&lt;b&gt;Strean 4&lt;br&gt;Local Memory&lt;/b&gt;" style="text;html=1;strokeColor=none;fillColor=none;align=center;verticalAlign=middle;whiteSpace=wrap;rounded=0;" vertex="1" parent="1">
                    <mxGeometry x="670" y="595" width="60" height="30" as="geometry"/>
                </mxCell>
            </root>
        </mxGraphModel>
    </diagram>
</mxfile>